<mxfile host="65bd71144e" pages="4">
    <diagram id="C5RBs43oDa-KdzZeNtuy" name="Общая схема">
        <mxGraphModel dx="695" dy="270" grid="1" gridSize="10" guides="1" tooltips="1" connect="1" arrows="1" fold="1" page="1" pageScale="1" pageWidth="827" pageHeight="1169" math="0" shadow="0">
            <root>
                <mxCell id="WIyWlLk6GJQsqaUBKTNV-0"/>
                <mxCell id="WIyWlLk6GJQsqaUBKTNV-1" parent="WIyWlLk6GJQsqaUBKTNV-0"/>
                <mxCell id="o0U5vX0BOEWEdHnp0pGY-16" value="" style="edgeStyle=orthogonalEdgeStyle;rounded=0;orthogonalLoop=1;jettySize=auto;html=1;" parent="WIyWlLk6GJQsqaUBKTNV-1" source="o0U5vX0BOEWEdHnp0pGY-17" target="o0U5vX0BOEWEdHnp0pGY-20" edge="1">
                    <mxGeometry relative="1" as="geometry"/>
                </mxCell>
                <mxCell id="o0U5vX0BOEWEdHnp0pGY-17" value="Start" style="ellipse;whiteSpace=wrap;html=1;" parent="WIyWlLk6GJQsqaUBKTNV-1" vertex="1">
                    <mxGeometry x="92" y="30" width="146" height="50" as="geometry"/>
                </mxCell>
                <mxCell id="o0U5vX0BOEWEdHnp0pGY-18" style="edgeStyle=orthogonalEdgeStyle;rounded=0;orthogonalLoop=1;jettySize=auto;html=1;exitX=0.5;exitY=1;exitDx=0;exitDy=0;" parent="WIyWlLk6GJQsqaUBKTNV-1" edge="1">
                    <mxGeometry relative="1" as="geometry">
                        <mxPoint x="165" y="260" as="sourcePoint"/>
                        <mxPoint x="165" y="260" as="targetPoint"/>
                    </mxGeometry>
                </mxCell>
                <mxCell id="o0U5vX0BOEWEdHnp0pGY-19" value="" style="edgeStyle=orthogonalEdgeStyle;rounded=0;orthogonalLoop=1;jettySize=auto;html=1;" parent="WIyWlLk6GJQsqaUBKTNV-1" source="o0U5vX0BOEWEdHnp0pGY-20" target="o0U5vX0BOEWEdHnp0pGY-24" edge="1">
                    <mxGeometry relative="1" as="geometry"/>
                </mxCell>
                <mxCell id="o0U5vX0BOEWEdHnp0pGY-20" value="&lt;span&gt;string[] array&lt;/span&gt;" style="shape=parallelogram;perimeter=parallelogramPerimeter;whiteSpace=wrap;html=1;fixedSize=1;" parent="WIyWlLk6GJQsqaUBKTNV-1" vertex="1">
                    <mxGeometry x="92" y="110" width="146" height="60" as="geometry"/>
                </mxCell>
                <mxCell id="o0U5vX0BOEWEdHnp0pGY-21" value="" style="edgeStyle=orthogonalEdgeStyle;rounded=0;orthogonalLoop=1;jettySize=auto;html=1;" parent="WIyWlLk6GJQsqaUBKTNV-1" source="o0U5vX0BOEWEdHnp0pGY-22" target="o0U5vX0BOEWEdHnp0pGY-26" edge="1">
                    <mxGeometry relative="1" as="geometry"/>
                </mxCell>
                <mxCell id="o0U5vX0BOEWEdHnp0pGY-22" value="PrintArray(array)" style="shape=process;whiteSpace=wrap;html=1;backgroundOutline=1;" parent="WIyWlLk6GJQsqaUBKTNV-1" vertex="1">
                    <mxGeometry x="80" y="290" width="170" height="60" as="geometry"/>
                </mxCell>
                <mxCell id="o0U5vX0BOEWEdHnp0pGY-23" value="" style="edgeStyle=orthogonalEdgeStyle;rounded=0;orthogonalLoop=1;jettySize=auto;html=1;" parent="WIyWlLk6GJQsqaUBKTNV-1" source="o0U5vX0BOEWEdHnp0pGY-24" target="o0U5vX0BOEWEdHnp0pGY-22" edge="1">
                    <mxGeometry relative="1" as="geometry"/>
                </mxCell>
                <mxCell id="o0U5vX0BOEWEdHnp0pGY-24" value="SearchItems(array)" style="shape=process;whiteSpace=wrap;html=1;backgroundOutline=1;" parent="WIyWlLk6GJQsqaUBKTNV-1" vertex="1">
                    <mxGeometry x="80" y="200" width="170" height="60" as="geometry"/>
                </mxCell>
                <mxCell id="o0U5vX0BOEWEdHnp0pGY-25" value="" style="edgeStyle=orthogonalEdgeStyle;rounded=0;orthogonalLoop=1;jettySize=auto;html=1;" parent="WIyWlLk6GJQsqaUBKTNV-1" source="o0U5vX0BOEWEdHnp0pGY-26" target="o0U5vX0BOEWEdHnp0pGY-27" edge="1">
                    <mxGeometry relative="1" as="geometry"/>
                </mxCell>
                <mxCell id="o0U5vX0BOEWEdHnp0pGY-26" value="FillArraySelectedItems (newArray)" style="shape=process;whiteSpace=wrap;html=1;backgroundOutline=1;" parent="WIyWlLk6GJQsqaUBKTNV-1" vertex="1">
                    <mxGeometry x="80" y="380" width="170" height="60" as="geometry"/>
                </mxCell>
                <mxCell id="o0U5vX0BOEWEdHnp0pGY-27" value="End" style="ellipse;whiteSpace=wrap;html=1;" parent="WIyWlLk6GJQsqaUBKTNV-1" vertex="1">
                    <mxGeometry x="92" y="470" width="146" height="50" as="geometry"/>
                </mxCell>
                <mxCell id="M8Fusr7i8-1K7RbTkL0C-0" value="&lt;span style=&quot;font-family: &amp;#34;helvetica&amp;#34; ; font-style: normal ; letter-spacing: normal ; text-align: center ; text-indent: 0px ; text-transform: none ; word-spacing: 0px ; background-color: rgb(248 , 249 , 250) ; display: inline ; float: none ; font-weight: normal&quot;&gt;&lt;font style=&quot;font-size: 12px&quot;&gt;&lt;u&gt;Примечание:&lt;br&gt;&lt;/u&gt;Расшифровка методов на следующих отдельных листах&lt;/font&gt;&lt;/span&gt;" style="text;whiteSpace=wrap;html=1;fontStyle=1;fontColor=#FF0000;" parent="WIyWlLk6GJQsqaUBKTNV-1" vertex="1">
                    <mxGeometry x="290" y="200" width="230" height="70" as="geometry"/>
                </mxCell>
            </root>
        </mxGraphModel>
    </diagram>
    <diagram id="gzGjmr_PSfF4H_ANBf88" name="Метод SearchItems">
        <mxGraphModel dx="695" dy="551" grid="1" gridSize="10" guides="1" tooltips="1" connect="1" arrows="1" fold="1" page="1" pageScale="1" pageWidth="827" pageHeight="1169" math="0" shadow="0">
            <root>
                <mxCell id="mz9-WsQUn0E9B6npMg28-0"/>
                <mxCell id="mz9-WsQUn0E9B6npMg28-1" parent="mz9-WsQUn0E9B6npMg28-0"/>
                <mxCell id="dsIfxHPdhYtsmZsZuIqw-2" value="" style="edgeStyle=orthogonalEdgeStyle;rounded=0;orthogonalLoop=1;jettySize=auto;html=1;fontSize=12;" parent="mz9-WsQUn0E9B6npMg28-1" source="yiBph_uUVCDcMxrG_3Ls-3" target="yiBph_uUVCDcMxrG_3Ls-4" edge="1">
                    <mxGeometry relative="1" as="geometry"/>
                </mxCell>
                <mxCell id="yiBph_uUVCDcMxrG_3Ls-3" value="Start" style="ellipse;whiteSpace=wrap;html=1;" parent="mz9-WsQUn0E9B6npMg28-1" vertex="1">
                    <mxGeometry x="265" y="60" width="120" height="40" as="geometry"/>
                </mxCell>
                <mxCell id="dsIfxHPdhYtsmZsZuIqw-1" value="" style="edgeStyle=orthogonalEdgeStyle;rounded=0;orthogonalLoop=1;jettySize=auto;html=1;fontSize=12;" parent="mz9-WsQUn0E9B6npMg28-1" source="yiBph_uUVCDcMxrG_3Ls-4" target="dsIfxHPdhYtsmZsZuIqw-0" edge="1">
                    <mxGeometry relative="1" as="geometry"/>
                </mxCell>
                <mxCell id="yiBph_uUVCDcMxrG_3Ls-4" value="string[] collection" style="shape=parallelogram;perimeter=parallelogramPerimeter;whiteSpace=wrap;html=1;fixedSize=1;" parent="mz9-WsQUn0E9B6npMg28-1" vertex="1">
                    <mxGeometry x="247.5" y="130" width="155" height="40" as="geometry"/>
                </mxCell>
                <mxCell id="yiBph_uUVCDcMxrG_3Ls-5" value="&lt;span style=&quot;font-family: &amp;#34;helvetica&amp;#34; ; font-style: normal ; letter-spacing: normal ; text-align: center ; text-indent: 0px ; text-transform: none ; word-spacing: 0px ; background-color: rgb(248 , 249 , 250) ; display: inline ; float: none&quot;&gt;&lt;font style=&quot;font-size: 16px&quot;&gt;SearchItems&lt;/font&gt;&lt;/span&gt;" style="text;whiteSpace=wrap;html=1;fontStyle=1;fontColor=#FF0000;" parent="mz9-WsQUn0E9B6npMg28-1" vertex="1">
                    <mxGeometry x="280" y="10" width="90" height="30" as="geometry"/>
                </mxCell>
                <mxCell id="dsIfxHPdhYtsmZsZuIqw-5" value="" style="edgeStyle=orthogonalEdgeStyle;rounded=0;orthogonalLoop=1;jettySize=auto;html=1;fontSize=12;" parent="mz9-WsQUn0E9B6npMg28-1" source="dsIfxHPdhYtsmZsZuIqw-0" target="dsIfxHPdhYtsmZsZuIqw-4" edge="1">
                    <mxGeometry relative="1" as="geometry"/>
                </mxCell>
                <mxCell id="dsIfxHPdhYtsmZsZuIqw-0" value="int count = 0" style="shape=parallelogram;perimeter=parallelogramPerimeter;whiteSpace=wrap;html=1;fixedSize=1;" parent="mz9-WsQUn0E9B6npMg28-1" vertex="1">
                    <mxGeometry x="247.5" y="200" width="155" height="40" as="geometry"/>
                </mxCell>
                <mxCell id="dsIfxHPdhYtsmZsZuIqw-9" value="" style="edgeStyle=orthogonalEdgeStyle;rounded=0;orthogonalLoop=1;jettySize=auto;html=1;fontSize=12;" parent="mz9-WsQUn0E9B6npMg28-1" source="dsIfxHPdhYtsmZsZuIqw-4" target="dsIfxHPdhYtsmZsZuIqw-8" edge="1">
                    <mxGeometry relative="1" as="geometry"/>
                </mxCell>
                <mxCell id="dsIfxHPdhYtsmZsZuIqw-13" value="" style="edgeStyle=orthogonalEdgeStyle;rounded=0;orthogonalLoop=1;jettySize=auto;html=1;fontSize=12;entryX=0.5;entryY=0;entryDx=0;entryDy=0;" parent="mz9-WsQUn0E9B6npMg28-1" source="dsIfxHPdhYtsmZsZuIqw-4" target="dsIfxHPdhYtsmZsZuIqw-12" edge="1">
                    <mxGeometry relative="1" as="geometry">
                        <mxPoint x="325" y="760" as="targetPoint"/>
                        <Array as="points">
                            <mxPoint x="520" y="300"/>
                            <mxPoint x="520" y="690"/>
                            <mxPoint x="325" y="690"/>
                        </Array>
                    </mxGeometry>
                </mxCell>
                <mxCell id="dsIfxHPdhYtsmZsZuIqw-4" value="i = 0; i &amp;lt; collection.Length; 1" style="shape=hexagon;perimeter=hexagonPerimeter2;whiteSpace=wrap;html=1;fixedSize=1;fontSize=12;" parent="mz9-WsQUn0E9B6npMg28-1" vertex="1">
                    <mxGeometry x="242.5" y="270" width="165" height="60" as="geometry"/>
                </mxCell>
                <mxCell id="dsIfxHPdhYtsmZsZuIqw-11" value="" style="edgeStyle=orthogonalEdgeStyle;rounded=0;orthogonalLoop=1;jettySize=auto;html=1;fontSize=12;" parent="mz9-WsQUn0E9B6npMg28-1" source="dsIfxHPdhYtsmZsZuIqw-8" target="dsIfxHPdhYtsmZsZuIqw-10" edge="1">
                    <mxGeometry relative="1" as="geometry"/>
                </mxCell>
                <mxCell id="dsIfxHPdhYtsmZsZuIqw-8" value="&lt;div&gt;string strTemp = collection[i]&lt;/div&gt;&lt;div&gt;int length = strTemp.Length&lt;/div&gt;" style="whiteSpace=wrap;html=1;" parent="mz9-WsQUn0E9B6npMg28-1" vertex="1">
                    <mxGeometry x="242.5" y="360" width="165" height="60" as="geometry"/>
                </mxCell>
                <mxCell id="mp-inGt7-oIW-UEayxT1-5" value="" style="edgeStyle=orthogonalEdgeStyle;rounded=0;orthogonalLoop=1;jettySize=auto;html=1;fontSize=12;" parent="mz9-WsQUn0E9B6npMg28-1" source="dsIfxHPdhYtsmZsZuIqw-10" target="mp-inGt7-oIW-UEayxT1-4" edge="1">
                    <mxGeometry relative="1" as="geometry"/>
                </mxCell>
                <mxCell id="dsIfxHPdhYtsmZsZuIqw-10" value="length &amp;lt;= 3" style="rhombus;whiteSpace=wrap;html=1;" parent="mz9-WsQUn0E9B6npMg28-1" vertex="1">
                    <mxGeometry x="245" y="450" width="160" height="80" as="geometry"/>
                </mxCell>
                <mxCell id="mp-inGt7-oIW-UEayxT1-1" value="" style="edgeStyle=orthogonalEdgeStyle;rounded=0;orthogonalLoop=1;jettySize=auto;html=1;fontSize=12;" parent="mz9-WsQUn0E9B6npMg28-1" source="dsIfxHPdhYtsmZsZuIqw-12" target="mp-inGt7-oIW-UEayxT1-0" edge="1">
                    <mxGeometry relative="1" as="geometry"/>
                </mxCell>
                <mxCell id="dsIfxHPdhYtsmZsZuIqw-12" value="count" style="shape=document;whiteSpace=wrap;html=1;boundedLbl=1;" parent="mz9-WsQUn0E9B6npMg28-1" vertex="1">
                    <mxGeometry x="265" y="720" width="120" height="80" as="geometry"/>
                </mxCell>
                <mxCell id="mp-inGt7-oIW-UEayxT1-0" value="End" style="ellipse;whiteSpace=wrap;html=1;" parent="mz9-WsQUn0E9B6npMg28-1" vertex="1">
                    <mxGeometry x="258.5" y="830" width="133" height="50" as="geometry"/>
                </mxCell>
                <mxCell id="mp-inGt7-oIW-UEayxT1-4" value="&lt;div&gt;count++&lt;br&gt;&lt;/div&gt;" style="whiteSpace=wrap;html=1;" parent="mz9-WsQUn0E9B6npMg28-1" vertex="1">
                    <mxGeometry x="242.5" y="560" width="165" height="60" as="geometry"/>
                </mxCell>
                <mxCell id="mp-inGt7-oIW-UEayxT1-6" value="Yes" style="text;html=1;strokeColor=none;fillColor=none;align=center;verticalAlign=middle;whiteSpace=wrap;rounded=0;fontSize=12;" parent="mz9-WsQUn0E9B6npMg28-1" vertex="1">
                    <mxGeometry x="310" y="510" width="60" height="70" as="geometry"/>
                </mxCell>
                <mxCell id="mp-inGt7-oIW-UEayxT1-7" value="" style="edgeStyle=orthogonalEdgeStyle;rounded=0;orthogonalLoop=1;jettySize=auto;html=1;fontSize=12;entryX=0;entryY=0.5;entryDx=0;entryDy=0;exitX=0.5;exitY=1;exitDx=0;exitDy=0;" parent="mz9-WsQUn0E9B6npMg28-1" source="mp-inGt7-oIW-UEayxT1-4" target="dsIfxHPdhYtsmZsZuIqw-4" edge="1">
                    <mxGeometry relative="1" as="geometry">
                        <mxPoint x="300" y="670" as="sourcePoint"/>
                        <mxPoint x="180" y="585" as="targetPoint"/>
                        <Array as="points">
                            <mxPoint x="325" y="670"/>
                            <mxPoint x="140" y="670"/>
                            <mxPoint x="140" y="300"/>
                        </Array>
                    </mxGeometry>
                </mxCell>
                <mxCell id="mp-inGt7-oIW-UEayxT1-8" value="" style="edgeStyle=orthogonalEdgeStyle;rounded=0;orthogonalLoop=1;jettySize=auto;html=1;fontSize=12;exitX=1;exitY=0.5;exitDx=0;exitDy=0;" parent="mz9-WsQUn0E9B6npMg28-1" source="dsIfxHPdhYtsmZsZuIqw-10" edge="1">
                    <mxGeometry relative="1" as="geometry">
                        <mxPoint x="335" y="540" as="sourcePoint"/>
                        <mxPoint x="325" y="650" as="targetPoint"/>
                        <Array as="points">
                            <mxPoint x="480" y="490"/>
                            <mxPoint x="480" y="650"/>
                        </Array>
                    </mxGeometry>
                </mxCell>
                <mxCell id="mp-inGt7-oIW-UEayxT1-9" value="No" style="text;html=1;strokeColor=none;fillColor=none;align=center;verticalAlign=middle;whiteSpace=wrap;rounded=0;fontSize=12;" parent="mz9-WsQUn0E9B6npMg28-1" vertex="1">
                    <mxGeometry x="402.5" y="460" width="60" height="30" as="geometry"/>
                </mxCell>
            </root>
        </mxGraphModel>
    </diagram>
    <diagram id="RWxKRSJV4z6yzRIZUz2O" name="Метод PrintArray">
        <mxGraphModel dx="695" dy="551" grid="1" gridSize="10" guides="1" tooltips="1" connect="1" arrows="1" fold="1" page="1" pageScale="1" pageWidth="827" pageHeight="1169" math="0" shadow="0">
            <root>
                <mxCell id="qSF8Lfo-RF_ev_LMWunw-0"/>
                <mxCell id="qSF8Lfo-RF_ev_LMWunw-1" parent="qSF8Lfo-RF_ev_LMWunw-0"/>
                <mxCell id="cDgKa7L6B92lJAbyyMb9-0" value="" style="edgeStyle=orthogonalEdgeStyle;rounded=0;orthogonalLoop=1;jettySize=auto;html=1;fontSize=12;" parent="qSF8Lfo-RF_ev_LMWunw-1" source="cDgKa7L6B92lJAbyyMb9-1" target="cDgKa7L6B92lJAbyyMb9-3" edge="1">
                    <mxGeometry relative="1" as="geometry"/>
                </mxCell>
                <mxCell id="cDgKa7L6B92lJAbyyMb9-1" value="Start" style="ellipse;whiteSpace=wrap;html=1;" parent="qSF8Lfo-RF_ev_LMWunw-1" vertex="1">
                    <mxGeometry x="265" y="60" width="120" height="40" as="geometry"/>
                </mxCell>
                <mxCell id="cDgKa7L6B92lJAbyyMb9-2" value="" style="edgeStyle=orthogonalEdgeStyle;rounded=0;orthogonalLoop=1;jettySize=auto;html=1;fontSize=12;entryX=0.5;entryY=0;entryDx=0;entryDy=0;" parent="qSF8Lfo-RF_ev_LMWunw-1" source="cDgKa7L6B92lJAbyyMb9-3" target="cDgKa7L6B92lJAbyyMb9-9" edge="1">
                    <mxGeometry relative="1" as="geometry"/>
                </mxCell>
                <mxCell id="cDgKa7L6B92lJAbyyMb9-3" value="string[] collection" style="shape=parallelogram;perimeter=parallelogramPerimeter;whiteSpace=wrap;html=1;fixedSize=1;" parent="qSF8Lfo-RF_ev_LMWunw-1" vertex="1">
                    <mxGeometry x="247.5" y="130" width="155" height="40" as="geometry"/>
                </mxCell>
                <mxCell id="cDgKa7L6B92lJAbyyMb9-4" value="&lt;span style=&quot;font-family: &amp;#34;helvetica&amp;#34; ; font-style: normal ; letter-spacing: normal ; text-align: center ; text-indent: 0px ; text-transform: none ; word-spacing: 0px ; background-color: rgb(248 , 249 , 250) ; display: inline ; float: none&quot;&gt;&lt;font style=&quot;font-size: 16px&quot;&gt;PrintArray&lt;/font&gt;&lt;/span&gt;" style="text;whiteSpace=wrap;html=1;fontStyle=1;fontColor=#FF0000;" parent="qSF8Lfo-RF_ev_LMWunw-1" vertex="1">
                    <mxGeometry x="280" y="10" width="90" height="30" as="geometry"/>
                </mxCell>
                <mxCell id="cDgKa7L6B92lJAbyyMb9-6" value="collection[i]" style="shape=parallelogram;perimeter=parallelogramPerimeter;whiteSpace=wrap;html=1;fixedSize=1;" parent="qSF8Lfo-RF_ev_LMWunw-1" vertex="1">
                    <mxGeometry x="247.5" y="310" width="155" height="40" as="geometry"/>
                </mxCell>
                <mxCell id="cDgKa7L6B92lJAbyyMb9-8" value="" style="edgeStyle=orthogonalEdgeStyle;rounded=0;orthogonalLoop=1;jettySize=auto;html=1;fontSize=12;entryX=0.5;entryY=0;entryDx=0;entryDy=0;exitX=1;exitY=0.5;exitDx=0;exitDy=0;" parent="qSF8Lfo-RF_ev_LMWunw-1" source="cDgKa7L6B92lJAbyyMb9-9" target="cDgKa7L6B92lJAbyyMb9-15" edge="1">
                    <mxGeometry relative="1" as="geometry">
                        <mxPoint x="325" y="760" as="targetPoint"/>
                        <Array as="points">
                            <mxPoint x="470" y="240"/>
                            <mxPoint x="470" y="410"/>
                            <mxPoint x="319" y="410"/>
                        </Array>
                    </mxGeometry>
                </mxCell>
                <mxCell id="cDgKa7L6B92lJAbyyMb9-22" value="" style="edgeStyle=orthogonalEdgeStyle;rounded=0;orthogonalLoop=1;jettySize=auto;html=1;fontSize=12;" parent="qSF8Lfo-RF_ev_LMWunw-1" source="cDgKa7L6B92lJAbyyMb9-9" target="cDgKa7L6B92lJAbyyMb9-6" edge="1">
                    <mxGeometry relative="1" as="geometry"/>
                </mxCell>
                <mxCell id="cDgKa7L6B92lJAbyyMb9-9" value="i = 0; i &amp;lt; collection.Length; 1" style="shape=hexagon;perimeter=hexagonPerimeter2;whiteSpace=wrap;html=1;fixedSize=1;fontSize=12;" parent="qSF8Lfo-RF_ev_LMWunw-1" vertex="1">
                    <mxGeometry x="242.5" y="210" width="165" height="60" as="geometry"/>
                </mxCell>
                <mxCell id="cDgKa7L6B92lJAbyyMb9-14" value="" style="edgeStyle=orthogonalEdgeStyle;rounded=0;orthogonalLoop=1;jettySize=auto;html=1;fontSize=12;" parent="qSF8Lfo-RF_ev_LMWunw-1" source="cDgKa7L6B92lJAbyyMb9-15" target="cDgKa7L6B92lJAbyyMb9-16" edge="1">
                    <mxGeometry relative="1" as="geometry"/>
                </mxCell>
                <mxCell id="cDgKa7L6B92lJAbyyMb9-15" value="collection" style="shape=document;whiteSpace=wrap;html=1;boundedLbl=1;" parent="qSF8Lfo-RF_ev_LMWunw-1" vertex="1">
                    <mxGeometry x="258.5" y="440" width="120" height="80" as="geometry"/>
                </mxCell>
                <mxCell id="cDgKa7L6B92lJAbyyMb9-16" value="End" style="ellipse;whiteSpace=wrap;html=1;" parent="qSF8Lfo-RF_ev_LMWunw-1" vertex="1">
                    <mxGeometry x="252" y="560" width="133" height="50" as="geometry"/>
                </mxCell>
                <mxCell id="cDgKa7L6B92lJAbyyMb9-19" value="" style="edgeStyle=orthogonalEdgeStyle;rounded=0;orthogonalLoop=1;jettySize=auto;html=1;fontSize=12;entryX=0;entryY=0.5;entryDx=0;entryDy=0;exitX=0.5;exitY=1;exitDx=0;exitDy=0;" parent="qSF8Lfo-RF_ev_LMWunw-1" source="cDgKa7L6B92lJAbyyMb9-6" target="cDgKa7L6B92lJAbyyMb9-9" edge="1">
                    <mxGeometry relative="1" as="geometry">
                        <mxPoint x="325" y="660" as="sourcePoint"/>
                        <mxPoint x="180" y="585" as="targetPoint"/>
                        <Array as="points">
                            <mxPoint x="325" y="390"/>
                            <mxPoint x="170" y="390"/>
                            <mxPoint x="170" y="240"/>
                        </Array>
                    </mxGeometry>
                </mxCell>
            </root>
        </mxGraphModel>
    </diagram>
    <diagram id="zuPJoPuWChe6WzJnTrkx" name="Метод FillArraySelectedItems">
        <mxGraphModel dx="695" dy="270" grid="1" gridSize="10" guides="1" tooltips="1" connect="1" arrows="1" fold="1" page="1" pageScale="1" pageWidth="827" pageHeight="1169" math="0" shadow="0">
            <root>
                <mxCell id="6rrKOsQROnbqfmGMxYo5-0"/>
                <mxCell id="6rrKOsQROnbqfmGMxYo5-1" parent="6rrKOsQROnbqfmGMxYo5-0"/>
                <mxCell id="SMqLMgtu9U6j1OgspUHp-0" value="" style="edgeStyle=orthogonalEdgeStyle;rounded=0;orthogonalLoop=1;jettySize=auto;html=1;fontSize=12;" parent="6rrKOsQROnbqfmGMxYo5-1" source="SMqLMgtu9U6j1OgspUHp-1" target="SMqLMgtu9U6j1OgspUHp-3" edge="1">
                    <mxGeometry relative="1" as="geometry"/>
                </mxCell>
                <mxCell id="SMqLMgtu9U6j1OgspUHp-1" value="Start" style="ellipse;whiteSpace=wrap;html=1;" parent="6rrKOsQROnbqfmGMxYo5-1" vertex="1">
                    <mxGeometry x="265" y="60" width="120" height="40" as="geometry"/>
                </mxCell>
                <mxCell id="SMqLMgtu9U6j1OgspUHp-2" value="" style="edgeStyle=orthogonalEdgeStyle;rounded=0;orthogonalLoop=1;jettySize=auto;html=1;fontSize=12;" parent="6rrKOsQROnbqfmGMxYo5-1" source="SMqLMgtu9U6j1OgspUHp-3" target="SMqLMgtu9U6j1OgspUHp-6" edge="1">
                    <mxGeometry relative="1" as="geometry"/>
                </mxCell>
                <mxCell id="SMqLMgtu9U6j1OgspUHp-3" value="string[] collection" style="shape=parallelogram;perimeter=parallelogramPerimeter;whiteSpace=wrap;html=1;fixedSize=1;" parent="6rrKOsQROnbqfmGMxYo5-1" vertex="1">
                    <mxGeometry x="247.5" y="130" width="155" height="40" as="geometry"/>
                </mxCell>
                <mxCell id="SMqLMgtu9U6j1OgspUHp-4" value="&lt;span style=&quot;font-family: &amp;#34;helvetica&amp;#34; ; font-style: normal ; letter-spacing: normal ; text-align: center ; text-indent: 0px ; text-transform: none ; word-spacing: 0px ; background-color: rgb(248 , 249 , 250) ; display: inline ; float: none&quot;&gt;&lt;font style=&quot;font-size: 16px&quot;&gt;FillArraySelectedItems&lt;/font&gt;&lt;/span&gt;" style="text;whiteSpace=wrap;html=1;fontStyle=1;fontColor=#FF0000;" parent="6rrKOsQROnbqfmGMxYo5-1" vertex="1">
                    <mxGeometry x="242.5" y="10" width="200" height="30" as="geometry"/>
                </mxCell>
                <mxCell id="SMqLMgtu9U6j1OgspUHp-5" value="" style="edgeStyle=orthogonalEdgeStyle;rounded=0;orthogonalLoop=1;jettySize=auto;html=1;fontSize=12;" parent="6rrKOsQROnbqfmGMxYo5-1" source="SMqLMgtu9U6j1OgspUHp-6" target="SMqLMgtu9U6j1OgspUHp-9" edge="1">
                    <mxGeometry relative="1" as="geometry"/>
                </mxCell>
                <mxCell id="SMqLMgtu9U6j1OgspUHp-6" value="string[] newCollection" style="shape=parallelogram;perimeter=parallelogramPerimeter;whiteSpace=wrap;html=1;fixedSize=1;" parent="6rrKOsQROnbqfmGMxYo5-1" vertex="1">
                    <mxGeometry x="247.5" y="200" width="155" height="40" as="geometry"/>
                </mxCell>
                <mxCell id="SMqLMgtu9U6j1OgspUHp-7" value="" style="edgeStyle=orthogonalEdgeStyle;rounded=0;orthogonalLoop=1;jettySize=auto;html=1;fontSize=12;" parent="6rrKOsQROnbqfmGMxYo5-1" source="SMqLMgtu9U6j1OgspUHp-9" target="SMqLMgtu9U6j1OgspUHp-11" edge="1">
                    <mxGeometry relative="1" as="geometry"/>
                </mxCell>
                <mxCell id="SMqLMgtu9U6j1OgspUHp-8" value="" style="edgeStyle=orthogonalEdgeStyle;rounded=0;orthogonalLoop=1;jettySize=auto;html=1;fontSize=12;entryX=0.5;entryY=0;entryDx=0;entryDy=0;" parent="6rrKOsQROnbqfmGMxYo5-1" source="SMqLMgtu9U6j1OgspUHp-9" target="SMqLMgtu9U6j1OgspUHp-15" edge="1">
                    <mxGeometry relative="1" as="geometry">
                        <mxPoint x="325" y="760" as="targetPoint"/>
                        <Array as="points">
                            <mxPoint x="520" y="300"/>
                            <mxPoint x="520" y="690"/>
                            <mxPoint x="325" y="690"/>
                        </Array>
                    </mxGeometry>
                </mxCell>
                <mxCell id="SMqLMgtu9U6j1OgspUHp-9" value="i = 0; i &amp;lt; collection.Length; 1" style="shape=hexagon;perimeter=hexagonPerimeter2;whiteSpace=wrap;html=1;fixedSize=1;fontSize=12;" parent="6rrKOsQROnbqfmGMxYo5-1" vertex="1">
                    <mxGeometry x="242.5" y="270" width="165" height="60" as="geometry"/>
                </mxCell>
                <mxCell id="SMqLMgtu9U6j1OgspUHp-10" value="" style="edgeStyle=orthogonalEdgeStyle;rounded=0;orthogonalLoop=1;jettySize=auto;html=1;fontSize=12;" parent="6rrKOsQROnbqfmGMxYo5-1" source="SMqLMgtu9U6j1OgspUHp-11" target="SMqLMgtu9U6j1OgspUHp-13" edge="1">
                    <mxGeometry relative="1" as="geometry"/>
                </mxCell>
                <mxCell id="SMqLMgtu9U6j1OgspUHp-11" value="&lt;div&gt;string strNew = collection[i]&lt;/div&gt;&lt;div&gt;int j = SearchItems(collection) - 1&lt;/div&gt;" style="whiteSpace=wrap;html=1;" parent="6rrKOsQROnbqfmGMxYo5-1" vertex="1">
                    <mxGeometry x="236" y="360" width="177.5" height="60" as="geometry"/>
                </mxCell>
                <mxCell id="SMqLMgtu9U6j1OgspUHp-12" value="" style="edgeStyle=orthogonalEdgeStyle;rounded=0;orthogonalLoop=1;jettySize=auto;html=1;fontSize=12;" parent="6rrKOsQROnbqfmGMxYo5-1" source="SMqLMgtu9U6j1OgspUHp-13" target="SMqLMgtu9U6j1OgspUHp-17" edge="1">
                    <mxGeometry relative="1" as="geometry"/>
                </mxCell>
                <mxCell id="SMqLMgtu9U6j1OgspUHp-13" value="strNew.Length &amp;lt;= 3" style="rhombus;whiteSpace=wrap;html=1;" parent="6rrKOsQROnbqfmGMxYo5-1" vertex="1">
                    <mxGeometry x="245" y="450" width="160" height="80" as="geometry"/>
                </mxCell>
                <mxCell id="SMqLMgtu9U6j1OgspUHp-14" value="" style="edgeStyle=orthogonalEdgeStyle;rounded=0;orthogonalLoop=1;jettySize=auto;html=1;fontSize=12;" parent="6rrKOsQROnbqfmGMxYo5-1" source="SMqLMgtu9U6j1OgspUHp-15" target="SMqLMgtu9U6j1OgspUHp-16" edge="1">
                    <mxGeometry relative="1" as="geometry"/>
                </mxCell>
                <mxCell id="SMqLMgtu9U6j1OgspUHp-15" value="newCollection" style="shape=document;whiteSpace=wrap;html=1;boundedLbl=1;" parent="6rrKOsQROnbqfmGMxYo5-1" vertex="1">
                    <mxGeometry x="265" y="720" width="120" height="80" as="geometry"/>
                </mxCell>
                <mxCell id="SMqLMgtu9U6j1OgspUHp-16" value="End" style="ellipse;whiteSpace=wrap;html=1;" parent="6rrKOsQROnbqfmGMxYo5-1" vertex="1">
                    <mxGeometry x="258.5" y="830" width="133" height="50" as="geometry"/>
                </mxCell>
                <mxCell id="SMqLMgtu9U6j1OgspUHp-17" value="&lt;div&gt;newCollection[j] = collection[i]&lt;br&gt;&lt;/div&gt;" style="whiteSpace=wrap;html=1;" parent="6rrKOsQROnbqfmGMxYo5-1" vertex="1">
                    <mxGeometry x="242.5" y="560" width="165" height="60" as="geometry"/>
                </mxCell>
                <mxCell id="SMqLMgtu9U6j1OgspUHp-18" value="Yes" style="text;html=1;strokeColor=none;fillColor=none;align=center;verticalAlign=middle;whiteSpace=wrap;rounded=0;fontSize=12;" parent="6rrKOsQROnbqfmGMxYo5-1" vertex="1">
                    <mxGeometry x="310" y="510" width="60" height="70" as="geometry"/>
                </mxCell>
                <mxCell id="SMqLMgtu9U6j1OgspUHp-19" value="" style="edgeStyle=orthogonalEdgeStyle;rounded=0;orthogonalLoop=1;jettySize=auto;html=1;fontSize=12;entryX=0;entryY=0.5;entryDx=0;entryDy=0;exitX=0.5;exitY=1;exitDx=0;exitDy=0;" parent="6rrKOsQROnbqfmGMxYo5-1" source="SMqLMgtu9U6j1OgspUHp-17" target="SMqLMgtu9U6j1OgspUHp-9" edge="1">
                    <mxGeometry relative="1" as="geometry">
                        <mxPoint x="300" y="670" as="sourcePoint"/>
                        <mxPoint x="180" y="585" as="targetPoint"/>
                        <Array as="points">
                            <mxPoint x="325" y="670"/>
                            <mxPoint x="140" y="670"/>
                            <mxPoint x="140" y="300"/>
                        </Array>
                    </mxGeometry>
                </mxCell>
                <mxCell id="SMqLMgtu9U6j1OgspUHp-20" value="" style="edgeStyle=orthogonalEdgeStyle;rounded=0;orthogonalLoop=1;jettySize=auto;html=1;fontSize=12;exitX=1;exitY=0.5;exitDx=0;exitDy=0;" parent="6rrKOsQROnbqfmGMxYo5-1" source="SMqLMgtu9U6j1OgspUHp-13" edge="1">
                    <mxGeometry relative="1" as="geometry">
                        <mxPoint x="335" y="540" as="sourcePoint"/>
                        <mxPoint x="325" y="650" as="targetPoint"/>
                        <Array as="points">
                            <mxPoint x="480" y="490"/>
                            <mxPoint x="480" y="650"/>
                        </Array>
                    </mxGeometry>
                </mxCell>
                <mxCell id="SMqLMgtu9U6j1OgspUHp-21" value="No" style="text;html=1;strokeColor=none;fillColor=none;align=center;verticalAlign=middle;whiteSpace=wrap;rounded=0;fontSize=12;" parent="6rrKOsQROnbqfmGMxYo5-1" vertex="1">
                    <mxGeometry x="402.5" y="460" width="60" height="30" as="geometry"/>
                </mxCell>
            </root>
        </mxGraphModel>
    </diagram>
</mxfile>